<svg width="28" height="28" viewBox="0 0 28 28" fill="none" xmlns="http://www.w3.org/2000/svg">
<path d="M9.33329 6.99984C9.33329 8.2885 8.28862 9.33317 6.99996 9.33317C5.71129 9.33317 4.66663 8.2885 4.66663 6.99984C4.66663 5.71117 5.71129 4.6665 6.99996 4.6665C8.28862 4.6665 9.33329 5.71117 9.33329 6.99984Z" fill="#F0D400"/>
<path d="M9.33329 13.9998C9.33329 15.2885 8.28862 16.3332 6.99996 16.3332C5.71129 16.3332 4.66663 15.2885 4.66663 13.9998C4.66663 12.7112 5.71129 11.6665 6.99996 11.6665C8.28862 11.6665 9.33329 12.7112 9.33329 13.9998Z" fill="#F0D400"/>
<path d="M6.99996 23.3332C8.28862 23.3332 9.33329 22.2885 9.33329 20.9998C9.33329 19.7112 8.28862 18.6665 6.99996 18.6665C5.71129 18.6665 4.66663 19.7112 4.66663 20.9998C4.66663 22.2885 5.71129 23.3332 6.99996 23.3332Z" fill="#F0D400"/>
<path d="M16.3333 6.99984C16.3333 8.2885 15.2886 9.33317 14 9.33317C12.7113 9.33317 11.6666 8.2885 11.6666 6.99984C11.6666 5.71117 12.7113 4.6665 14 4.6665C15.2886 4.6665 16.3333 5.71117 16.3333 6.99984Z" fill="#F0D400"/>
<path d="M14 16.3332C15.2886 16.3332 16.3333 15.2885 16.3333 13.9998C16.3333 12.7112 15.2886 11.6665 14 11.6665C12.7113 11.6665 11.6666 12.7112 11.6666 13.9998C11.6666 15.2885 12.7113 16.3332 14 16.3332Z" fill="#F0D400"/>
<path d="M16.3333 20.9998C16.3333 22.2885 15.2886 23.3332 14 23.3332C12.7113 23.3332 11.6666 22.2885 11.6666 20.9998C11.6666 19.7112 12.7113 18.6665 14 18.6665C15.2886 18.6665 16.3333 19.7112 16.3333 20.9998Z" fill="#F0D400"/>
<path d="M21 9.33317C22.2886 9.33317 23.3333 8.2885 23.3333 6.99984C23.3333 5.71117 22.2886 4.6665 21 4.6665C19.7113 4.6665 18.6666 5.71117 18.6666 6.99984C18.6666 8.2885 19.7113 9.33317 21 9.33317Z" fill="#F0D400"/>
<path d="M23.3333 13.9998C23.3333 15.2885 22.2886 16.3332 21 16.3332C19.7113 16.3332 18.6666 15.2885 18.6666 13.9998C18.6666 12.7112 19.7113 11.6665 21 11.6665C22.2886 11.6665 23.3333 12.7112 23.3333 13.9998Z" fill="#F0D400"/>
<path d="M21 23.3332C22.2886 23.3332 23.3333 22.2885 23.3333 20.9998C23.3333 19.7112 22.2886 18.6665 21 18.6665C19.7113 18.6665 18.6666 19.7112 18.6666 20.9998C18.6666 22.2885 19.7113 23.3332 21 23.3332Z" fill="#F0D400"/>
</svg>
