<svg width="24" height="24" viewBox="0 0 24 24" fill="none" xmlns="http://www.w3.org/2000/svg">
<path fill-rule="evenodd" clip-rule="evenodd" d="M21.9214 0.579505C21.4821 0.140165 20.7698 0.140165 20.3304 0.579505L19.349 1.5609C18.0945 0.961612 16.5464 1.18151 15.5074 2.2206L3.57492 14.153L9.93888 20.517L21.8713 8.58456C22.9104 7.54547 23.1303 5.9974 22.531 4.74288L23.5124 3.76149C23.9517 3.32215 23.9517 2.60983 23.5124 2.1705L21.9214 0.579505ZM17.1199 10.154L9.93888 17.335L6.7569 14.153L13.9379 6.97199L17.1199 10.154ZM19.1655 8.10841L20.2803 6.99357C20.7197 6.55423 20.7197 5.84192 20.2803 5.40258L18.6893 3.81159C18.25 3.37225 17.5377 3.37225 17.0983 3.81159L15.9835 4.92643L19.1655 8.10841Z" fill="white"/>
<path d="M0.25 23.819L2.63692 15.0681L9.00045 21.4325L0.25 23.819Z" fill="white"/>
</svg>
