<svg width="24" height="25" viewBox="0 0 24 25" fill="none" xmlns="http://www.w3.org/2000/svg">
<path fill-rule="evenodd" clip-rule="evenodd" d="M10 4.82471H14C17.771 4.82471 19.657 4.82471 20.828 5.99671C22 7.16771 22 9.05371 22 12.8247C22 16.5957 22 18.4817 20.828 19.6527C19.657 20.8247 17.771 20.8247 14 20.8247H10C6.229 20.8247 4.343 20.8247 3.172 19.6527C2 18.4817 2 16.5957 2 12.8247C2 9.05371 2 7.16771 3.172 5.99671C4.343 4.82471 6.229 4.82471 10 4.82471ZM13.25 9.82471C13.25 9.62579 13.329 9.43503 13.4697 9.29438C13.6103 9.15373 13.8011 9.07471 14 9.07471H19C19.1989 9.07471 19.3897 9.15373 19.5303 9.29438C19.671 9.43503 19.75 9.62579 19.75 9.82471C19.75 10.0236 19.671 10.2144 19.5303 10.355C19.3897 10.4957 19.1989 10.5747 19 10.5747H14C13.8011 10.5747 13.6103 10.4957 13.4697 10.355C13.329 10.2144 13.25 10.0236 13.25 9.82471ZM14.25 12.8247C14.25 12.6258 14.329 12.435 14.4697 12.2944C14.6103 12.1537 14.8011 12.0747 15 12.0747H19C19.1989 12.0747 19.3897 12.1537 19.5303 12.2944C19.671 12.435 19.75 12.6258 19.75 12.8247C19.75 13.0236 19.671 13.2144 19.5303 13.355C19.3897 13.4957 19.1989 13.5747 19 13.5747H15C14.8011 13.5747 14.6103 13.4957 14.4697 13.355C14.329 13.2144 14.25 13.0236 14.25 12.8247ZM15.25 15.8247C15.25 15.6258 15.329 15.435 15.4697 15.2944C15.6103 15.1537 15.8011 15.0747 16 15.0747H19C19.1989 15.0747 19.3897 15.1537 19.5303 15.2944C19.671 15.435 19.75 15.6258 19.75 15.8247C19.75 16.0236 19.671 16.2144 19.5303 16.355C19.3897 16.4957 19.1989 16.5747 19 16.5747H16C15.8011 16.5747 15.6103 16.4957 15.4697 16.355C15.329 16.2144 15.25 16.0236 15.25 15.8247ZM11 9.82471C11 10.3551 10.7893 10.8638 10.4142 11.2389C10.0391 11.614 9.53043 11.8247 9 11.8247C8.46957 11.8247 7.96086 11.614 7.58579 11.2389C7.21071 10.8638 7 10.3551 7 9.82471C7 9.29427 7.21071 8.78557 7.58579 8.41049C7.96086 8.03542 8.46957 7.82471 9 7.82471C9.53043 7.82471 10.0391 8.03542 10.4142 8.41049C10.7893 8.78557 11 9.29427 11 9.82471ZM9 17.8247C13 17.8247 13 16.9297 13 15.8247C13 14.7197 11.21 13.8247 9 13.8247C6.79 13.8247 5 14.7197 5 15.8247C5 16.9297 5 17.8247 9 17.8247Z" fill="white"/>
</svg>
