<svg width="42" height="39" viewBox="0 0 42 39" fill="none" xmlns="http://www.w3.org/2000/svg">
<path d="M13.5625 4.0625C13.5625 3.73927 13.4242 3.42927 13.1781 3.20071C12.9319 2.97215 12.5981 2.84375 12.25 2.84375C11.9019 2.84375 11.5681 2.97215 11.3219 3.20071C11.0758 3.42927 10.9375 3.73927 10.9375 4.0625V6.63C8.4175 6.81687 6.7655 7.27513 5.551 8.4045C4.33475 9.53225 3.84125 11.0679 3.63825 13.4062H38.3617C38.1587 11.0662 37.6652 9.53225 36.449 8.4045C35.2345 7.27513 33.5807 6.81687 31.0625 6.62838V4.0625C31.0625 3.73927 30.9242 3.42927 30.6781 3.20071C30.4319 2.97215 30.0981 2.84375 29.75 2.84375C29.4019 2.84375 29.0681 2.97215 28.8219 3.20071C28.5758 3.42927 28.4375 3.73927 28.4375 4.0625V6.52113C27.2738 6.5 25.9683 6.5 24.5 6.5H17.5C16.0317 6.5 14.7262 6.5 13.5625 6.52113V4.0625Z" fill="#006C9C"/>
<path fill-rule="evenodd" clip-rule="evenodd" d="M38.5 19.5C38.5 18.1366 38.5 16.9244 38.4772 15.8438H3.52275C3.5 16.9244 3.5 18.1366 3.5 19.5V22.75C3.5 28.8779 3.5 31.9426 5.551 33.8455C7.60025 35.75 10.9008 35.75 17.5 35.75H24.5C31.0993 35.75 34.3997 35.75 36.449 33.8455C38.5 31.9426 38.5 28.8779 38.5 22.75V19.5ZM24.5 19.9062C23.6878 19.9062 22.9088 20.2059 22.3345 20.7392C21.7602 21.2725 21.4375 21.9958 21.4375 22.75V26C21.4375 26.7542 21.7602 27.4775 22.3345 28.0108C22.9088 28.5441 23.6878 28.8438 24.5 28.8438C25.3122 28.8438 26.0912 28.5441 26.6655 28.0108C27.2398 27.4775 27.5625 26.7542 27.5625 26V22.75C27.5625 21.9958 27.2398 21.2725 26.6655 20.7392C26.0912 20.2059 25.3122 19.9062 24.5 19.9062ZM24.5 22.3438C24.384 22.3438 24.2727 22.3866 24.1906 22.4627C24.1086 22.5389 24.0625 22.6423 24.0625 22.75V26C24.0625 26.1077 24.1086 26.2111 24.1906 26.2873C24.2727 26.3634 24.384 26.4062 24.5 26.4062C24.616 26.4062 24.7273 26.3634 24.8094 26.2873C24.8914 26.2111 24.9375 26.1077 24.9375 26V22.75C24.9375 22.6423 24.8914 22.5389 24.8094 22.4627C24.7273 22.3866 24.616 22.3438 24.5 22.3438ZM18.8772 19.9989C19.1171 20.0911 19.3221 20.2474 19.4663 20.4478C19.6106 20.6483 19.6875 20.8839 19.6875 21.125V27.625C19.6875 27.9482 19.5492 28.2582 19.3031 28.4868C19.0569 28.7153 18.7231 28.8438 18.375 28.8438C18.0269 28.8438 17.6931 28.7153 17.4469 28.4868C17.2008 28.2582 17.0625 27.9482 17.0625 27.625V24.0662L16.6775 24.4237C16.4287 24.639 16.0996 24.7562 15.7596 24.7507C15.4196 24.7451 15.0951 24.6172 14.8547 24.3939C14.6142 24.1706 14.4764 23.8693 14.4704 23.5536C14.4644 23.2379 14.5907 22.9323 14.8225 22.7013L17.4475 20.2638C17.6309 20.0933 17.8646 19.9772 18.1191 19.93C18.3736 19.8829 18.6374 19.9068 18.8772 19.9989Z" fill="#006C9C"/>
</svg>
