<svg width="24" height="25" viewBox="0 0 24 25" fill="none" xmlns="http://www.w3.org/2000/svg">
<path d="M18.512 10.2528C18.512 10.9918 17.887 11.5908 17.116 11.5908C16.346 11.5908 15.721 10.9908 15.721 10.2528C15.721 9.51378 16.346 8.91578 17.116 8.91578C17.886 8.91578 18.512 9.51378 18.512 10.2528Z" fill="white"/>
<path fill-rule="evenodd" clip-rule="evenodd" d="M18.036 5.70778C16.976 5.57178 15.622 5.57178 13.913 5.57178H10.087C8.377 5.57178 7.023 5.57178 5.964 5.70778C4.874 5.84878 3.99 6.14478 3.294 6.81178C2.598 7.47978 2.289 8.32578 2.142 9.37178C2 10.3858 2 11.6838 2 13.3228V13.4228C2 15.0618 2 16.3598 2.142 17.3758C2.289 18.4208 2.598 19.2668 3.294 19.9338C3.99 20.6018 4.874 20.8978 5.964 21.0378C7.024 21.1758 8.378 21.1758 10.087 21.1758H13.913C15.623 21.1758 16.977 21.1758 18.036 21.0388C19.126 20.8988 20.01 20.6028 20.706 19.9348C21.402 19.2678 21.711 18.4218 21.858 17.3768C22 16.3608 22 15.0628 22 13.4238V13.3238C22 11.6838 22 10.3868 21.858 9.37078C21.711 8.32578 21.402 7.47978 20.706 6.81178C20.01 6.14478 19.126 5.84878 18.036 5.70778ZM6.15 7.03378C5.214 7.15378 4.675 7.38078 4.28 7.75778C3.887 8.13578 3.651 8.65178 3.525 9.54878C3.425 10.2688 3.402 11.1688 3.397 12.3448L3.867 11.9498C4.992 11.0068 6.686 11.0608 7.742 12.0728L11.732 15.8978C11.9297 16.0843 12.1849 16.1981 12.4558 16.2206C12.7267 16.2431 12.9972 16.173 13.223 16.0218L13.501 15.8348C14.1531 15.3987 14.9297 15.1871 15.7129 15.2323C16.4961 15.2774 17.2433 15.5767 17.841 16.0848L20.248 18.1628C20.346 17.8988 20.421 17.5828 20.475 17.1978C20.603 16.2818 20.605 15.0738 20.605 13.3738C20.605 11.6738 20.603 10.4658 20.475 9.54878C20.349 8.65178 20.113 8.13578 19.719 7.75878C19.326 7.38078 18.786 7.15478 17.85 7.03378C16.894 6.91078 15.634 6.90878 13.86 6.90878H10.14C8.366 6.90878 7.106 6.91078 6.15 7.03378Z" fill="white"/>
<path d="M17.086 2.78578C16.226 2.67578 15.132 2.67578 13.767 2.67578H10.677C9.313 2.67578 8.218 2.67578 7.358 2.78578C6.468 2.90078 5.726 3.14378 5.137 3.70578C4.81194 4.0178 4.56405 4.40127 4.413 4.82578C4.917 4.59578 5.487 4.45978 6.127 4.37578C7.211 4.23578 8.597 4.23578 10.347 4.23578H14.261C16.011 4.23578 17.396 4.23578 18.481 4.37578C19.039 4.44878 19.545 4.56178 20 4.74178C19.8477 4.35038 19.6115 3.99709 19.308 3.70678C18.719 3.14378 17.977 2.90078 17.086 2.78678V2.78578Z" fill="white"/>
</svg>
